PathFileType	4	(X/Y/Z)	SUBJ63_3_walk_RCNL2025.trc
DataRate	CameraRate	NumFrames	NumMarkers	Units	OrigDataRate	OrigDataStartFrame	OrigNumFrames
100	100	6	25	mm	100	29	228
Frame#	Time	R_Shoulder			L_Shoulder			C7			J_Notch			R_Elbow			L_Elbow			R_Wrist			L_Wrist			R_Asis			L_Asis			Sacral			Thoracic			Sternum			R_Thigh_Lateral			R_Knee_Lateral			R_Shank_Lateral			R_Ankle_Lateral			R_Heel			R_Toe			L_Thigh_Lateral			L_Knee_Lateral			L_Shank_Lateral			L_Ankle_Lateral			L_Heel			L_Toe		
		X1	Y1	Z1	X2	Y2	Z2	X3	Y3	Z3	X4	Y4	Z4	X5	Y5	Z5	X6	Y6	Z6	X7	Y7	Z7	X8	Y8	Z8	X9	Y9	Z9	X10	Y10	Z10	X11	Y11	Z11	X12	Y12	Z12	X13	Y13	Z13	X14	Y14	Z14	X15	Y15	Z15	X16	Y16	Z16	X17	Y17	Z17	X18	Y18	Z18	X19	Y19	Z19	X20	Y20	Z20	X21	Y21	Z21	X22	Y22	Z22	X23	Y23	Z23	X24	Y24	Z24	X25	Y25	Z25
29	0.28000000	-646.175903	1256.984375	-141.947968	-621.658875	1269.935425	-474.873840	-709.642883	1327.543091	-317.472687	-594.178833	1217.826782	-309.692108	-705.943359	979.024841	-42.410854	-641.943298	975.738647	-576.324707	-647.225739	761.689819	4.876554	-482.911514	815.486969	-589.860657	-578.584839	826.372742	-197.267059	-577.204834	805.449585	-446.858276	-797.760132	816.375793	-324.667969	-792.974854	1146.161621	-320.941986	-546.619507	1037.619385	-305.336761	-534.918823	495.001007	-145.585861	-518.119019	443.452087	-195.490448	-508.920654	262.499420	-156.202652	-509.406372	57.991875	-242.436447	-554.033142	55.803223	-294.345306	-394.201263	46.170856	-244.981125	-719.768311	446.714661	-552.089539	-720.435730	415.985748	-486.991730	-865.294495	292.607574	-518.763428	-1021.663757	176.561249	-440.249298	-1045.737549	217.816879	-388.199066	-975.530884	64.153511	-423.673859
30	0.29000000	-628.762573	1258.880737	-140.592453	-606.346130	1271.606567	-473.318268	-693.566833	1329.536621	-315.683167	-578.286377	1219.522461	-308.259552	-687.750793	980.762268	-41.000156	-629.902100	977.315247	-574.432495	-628.419434	763.502289	5.704292	-475.415604	812.622833	-590.363068	-563.484985	828.515503	-195.046432	-562.841309	806.391113	-444.221710	-783.272827	817.868042	-323.019226	-777.188171	1148.385986	-318.626129	-531.107727	1039.075073	-303.997833	-525.072876	495.166565	-143.879730	-509.192627	443.493835	-194.041473	-503.951447	262.354187	-155.197662	-509.027100	58.179134	-242.689774	-553.638611	56.374649	-294.470001	-393.905579	45.861721	-245.327209	-690.242676	444.672791	-552.631226	-690.917725	414.128937	-487.505646	-837.073242	294.398102	-519.666992	-998.840271	186.174149	-441.628845	-1021.067322	228.192200	-388.786285	-958.564636	71.226921	-427.862549
31	0.30000000	-611.317688	1260.968140	-139.423508	-591.255737	1273.380981	-471.971436	-677.546631	1331.768311	-314.052551	-562.514099	1221.387817	-307.067902	-669.451172	982.746216	-39.593731	-618.257874	979.016785	-572.657166	-609.315063	765.601990	6.454379	-468.730606	809.760590	-590.929077	-548.580200	830.781067	-192.981003	-548.652649	807.648193	-441.895905	-769.223328	819.988342	-321.397125	-761.567261	1150.890991	-316.349670	-515.922607	1040.569946	-302.918182	-516.519958	495.212097	-142.317337	-501.699493	443.382996	-192.708389	-500.727661	262.141724	-154.289246	-508.861908	58.330013	-242.896957	-553.373291	56.834850	-294.631378	-393.803040	45.840084	-245.537521	-660.054138	443.428436	-552.782959	-660.853394	413.129120	-487.529724	-807.390564	295.979614	-520.029175	-973.623962	194.557449	-442.564148	-994.696228	236.523438	-388.680817	-937.320312	78.257210	-432.423370
32	0.31000000	-593.864319	1263.230713	-138.446121	-576.418823	1275.251099	-470.861725	-661.591431	1334.226685	-312.571564	-546.883484	1223.433350	-306.127014	-651.037415	984.978638	-38.200466	-606.997986	980.828125	-570.963135	-589.939117	767.976654	7.107416	-462.796219	807.000549	-591.560333	-533.831238	833.111145	-191.102585	-534.581848	809.265869	-439.938965	-755.566162	822.711914	-319.798096	-746.105896	1153.640991	-314.098145	-501.022675	1042.145874	-302.127838	-508.991089	495.238922	-140.911591	-495.409973	443.212006	-191.510635	-498.726990	261.890717	-153.498856	-508.838654	58.442303	-243.053589	-553.194397	57.221230	-294.812378	-393.819580	45.966682	-245.634872	-629.706299	443.282715	-552.517090	-630.546814	413.210388	-487.098755	-776.645020	297.501862	-519.873657	-946.158447	201.288071	-443.092896	-966.836975	242.464859	-388.017731	-911.748535	84.716042	-437.019135
33	0.32000000	-576.431641	1265.656860	-137.660599	-561.852417	1277.212769	-469.998260	-645.720520	1336.884033	-311.231445	-531.409058	1225.658447	-305.429779	-632.509216	987.462463	-36.830154	-596.111450	982.744507	-569.319275	-570.316132	770.619110	7.645704	-457.547714	804.438293	-592.260956	-519.207581	835.449890	-189.409180	-520.581665	811.288513	-438.358154	-742.199890	825.949524	-318.187958	-730.791016	1156.585083	-311.860504	-486.362396	1043.848755	-301.632568	-502.202942	495.335693	-139.675049	-490.071899	443.068542	-190.465012	-497.392059	261.624908	-152.843155	-508.899536	58.523792	-243.161011	-553.076721	57.563938	-294.989532	-393.899261	46.147289	-245.646927	-599.612061	444.376221	-551.827454	-600.257507	414.475220	-486.257477	-745.200562	299.123016	-519.257385	-916.630554	206.030212	-443.275604	-937.676025	245.837463	-387.006775	-882.060669	90.144333	-441.274078
34	0.33000000	-559.055725	1268.234985	-137.060333	-547.564026	1279.258911	-469.372803	-629.960999	1339.693237	-310.025665	-516.093262	1228.048462	-304.956787	-613.877197	990.192322	-35.489159	-585.596008	984.763794	-567.708740	-550.471161	773.519501	8.058930	-452.919128	802.153931	-593.037231	-504.687744	837.747314	-187.867355	-506.611725	813.745483	-437.108612	-728.972961	829.555542	-316.505157	-715.604980	1159.656860	-309.631104	-471.897827	1045.715698	-301.414612	-495.896606	495.561462	-138.618530	-485.432404	443.015991	-189.586182	-496.258759	261.369690	-152.330719	-509.003510	58.585911	-243.223450	-553.014343	57.881496	-295.132172	-394.004150	46.325558	-245.601242	-570.033203	446.676392	-550.728943	-570.195618	416.903900	-485.049072	-713.352722	300.957733	-518.259705	-885.259277	208.566650	-443.169952	-907.369751	246.611084	-385.865479	-848.661011	94.200111	-444.838318
